<?xml version="1.0" encoding="UTF-8"?>
<svg width="512px" height="512px" viewBox="0 0 512 512" version="1.1" xmlns="http://www.w3.org/2000/svg" xmlns:xlink="http://www.w3.org/1999/xlink">
    <!-- Generator: Sketch 54.1 (76490) - https://sketchapp.com -->
    <title>Icon</title>
    <desc>Created with Sketch.</desc>
    <g id="Icon" stroke="none" stroke-width="1" fill="none" fill-rule="evenodd">
        <rect fill="#FFFFFF" opacity="0" x="0" y="0" width="512" height="512"></rect>
        <rect id="Background" stroke="#979797" fill="#FF0069" x="0" y="0" width="512" height="512" rx="84"></rect>
        <g id="Glyph" transform="translate(0.000000, 101.000000)" fill="#D8D8D8" stroke="#979797">
            <path d="M130.770546,256.160978 C121.309396,261.298039 112.964811,264.945672 105.73679,267.103878 C75.3452867,276.178438 75.257627,245.596308 105.473811,175.357488 C105.448436,174.964245 105.424269,174.570628 105.401311,174.176627 C75.6538647,123.579211 62.0995795,93.6739682 64.7384437,84.4608798 C67.174461,75.9559927 85.2229669,78.754055 118.883962,92.8550667 C141.987738,37.9407671 192.285051,0 256,0 C344.36556,0 416,72.9775858 416,163 C416,253.022414 344.36556,326 256,326 C201.636461,326 157.040992,298.379033 130.770546,256.160978 Z M130.770546,256.160978 C116.311535,232.924549 107.403723,205.266224 105.47381,175.357473 C105.561217,175.154308 105.648877,174.950797 105.73679,174.746954 C105.624732,174.556547 105.512902,174.366431 105.4013,174.176607 C105.186114,170.483475 105.077181,166.756578 105.077181,163 C105.077181,137.88719 109.945365,114.100803 118.883962,92.8550667 C121.82371,94.0865641 124.882538,95.4042716 128.060447,96.8081892 L256.738444,160.347543 C203.194861,207.698055 161.205562,239.635867 130.770546,256.160978 Z" id="Oval-2"></path>
        </g>
    </g>
</svg>